<svg fill="#FFFFFF" xmlns="http://www.w3.org/2000/svg" xmlns:xlink="http://www.w3.org/1999/xlink" xml:space="preserve" version="1.1" style="shape-rendering:geometricPrecision;text-rendering:geometricPrecision;image-rendering:optimizeQuality;" viewBox="0 0 847 847" x="0px" y="0px" fill-rule="evenodd" clip-rule="evenodd"><defs><style type="text/css">
   
    .fil0 {fill:#FFFFFF;fill-rule:nonzero}
   
  </style></defs><g><path class="fil0" d="M183 542l11 -11 66 -7 0 61 60 0 -8 71 -8 8 -85 20c-2,-4 -5,-8 -7,-12 -5,-7 -11,-14 -17,-20 -6,-7 -13,-12 -20,-17 -4,-3 -8,-5 -12,-8l20 -85zm31 173c0,0 1,0 2,-1l103 -24 388 -388c38,-37 40,-83 23,-120 -6,-15 -15,-28 -26,-39 -11,-11 -24,-20 -39,-27 -38,-17 -83,-14 -120,23l-82 83 -4 3c-2,1 -2,2 -3,3l-277 277c-2,1 -4,3 -5,5l-17 17 -25 104 0 1 -26 108 108 -25zm13 -217l256 -255c28,-24 59,-26 85,-17 12,5 23,12 32,21 9,9 16,20 20,32 10,27 6,60 -20,89 -1,1 -2,1 -2,2l-253 253 8 -67 -64 0 0 -64 -62 6zm306 -306l32 -32c28,-28 61,-30 88,-17 11,4 21,12 30,20 9,9 16,19 21,30 12,28 10,61 -17,88l-33 33c1,-15 -1,-31 -6,-45 -6,-15 -16,-30 -28,-42 -11,-12 -26,-22 -42,-28 -14,-5 -29,-8 -45,-7zm16 128c6,-6 6,-15 0,-21 -5,-5 -14,-5 -20,0l-208 209c-6,5 -6,15 0,20 5,6 15,6 20,0l208 -208z"></path></g></svg>